<svg viewBox="0 0 1368 1024"><path d="M421.131071 551.430472q-18.203593-16.13839-57.697937-16.138389h-99.576847v132.55622h98.107785c22.248836 0 39.984032-4.25815 52.545575-12.582834 16.202262-10.645376 24.271457-27.46507 24.271457-51.289421 0.063872-24.505655-6.025283-41.9002-17.650033-52.545576zM407.973387 463.052562c10.091816-10.176979 15.627412-26.294079 15.627411-48.393879 0-20.353959-5.535595-35.257485-15.627411-44.17831-11.113772-9.602129-28.359281-14.328676-52.609448-14.328676h-91.550233v121.804391h90.485695c25.314704 0 43.0499-5.301397 53.673986-14.903526z" p-id="73008" fill="#2c2c2c"></path><path d="M1167.201597 0H201.325349C90.61344 0 0 90.592149 0 201.325349V822.674651c0 110.71191 90.592149 201.325349 201.325349 201.325349h965.876248c110.71191 0 201.325349-90.592149 201.325349-201.325349V201.325349C1368.526946 90.592149 1277.934797 0 1167.201597 0zM460.518962 700.125083c-21.290752 16.71324-51.608782 25.059215-89.974717 25.059215H204.646707V298.815702h165.407851c35.896208 0 64.234198 10.176979 84.460412 30.445775 18.650699 19.161677 28.337991 44.710579 28.337991 77.02994 0 23.909514-5.08849 44.199601-14.690619 60.912841A91.550233 91.550233 0 0 1 426.730539 502.461743c23.675316 5.38656 41.410512 16.71324 53.546241 34.065203 11.62475 16.734531 17.671324 39.984032 17.671324 68.683966 0 42.943446-12.646707 74.560213-37.429142 94.914171z m361.027279-341.567531H703.233533v366.626746h-59.145709v-366.626746h-118.312708v-59.74185h295.771125z m342.355289 366.626746H1106.267465l-180.502994-311.760479h-2.129075v311.760479h-58.975383V298.815702h59.145709l178.480372 307.54491h1.95875V298.815702h59.614105z"></path></svg>