<svg viewBox="0 0 1024 1024"><path d="M0 0"></path><path d="M929.439289 428.1344l-50.062222-69.5296c-7.9872-11.195733-20.855467-17.339733-34.7136-17.339733H473.873067v-273.066667h178.2784l37.307733 60.177067c8.226133 11.6736 21.492622 21.879467 34.781867 21.879466 8.6016 0 17.271467-0.580267 24.814933-5.973333 19.205689-13.653333 23.586133-39.3216 9.864533-58.4704l-50.016711-69.0176C700.791467 5.666133 687.854933 0 674.0992 0H177.186133c-13.550933 0-26.350933 5.973333-34.440533 16.9984L94.754133 82.397867a42.416356 42.416356 0 0 0 9.284267 59.392c19.080533 13.960533 45.6704 1.706667 59.5968-17.3056L198.8608 68.266667h172.6464v273.066666h-23.586133c-13.550933 0-26.350933 5.973333-34.440534 16.964267l-47.991466 65.399467a42.439111 42.439111 0 0 0 9.250133 59.426133c19.080533 13.960533 45.6704 1.706667 59.5968-17.3056L369.5616 409.6h1.979733v238.933333h-28.9792c-23.552 0-42.666667 10.683733-42.666666 34.133334 0 23.586133 19.114667 34.133333 42.666666 34.133333h170.666667c11.241244 0 21.265067-2.537244 28.910933-7.611733V955.733333h-28.967822c-23.552 0-42.666667 10.626844-42.666667 34.133334s19.114667 34.133333 42.666667 34.133333h170.666667c23.552 0 42.666667-10.626844 42.666666-34.133333s-19.114667-34.133333-42.666666-34.133334H644.551111V409.6h178.289778l37.307733 60.177067c8.226133 11.6736 21.492622 21.879467 34.781867 21.879466 8.6016 0 17.271467-0.580267 24.814933-5.973333 19.023644-13.7216 23.4496-38.4 9.693867-57.5488zM473.873067 648.533333V409.6h68.266666v246.5792c-7.645867-5.040356-17.669689-7.645867-28.910933-7.645867h-39.355733z"></path></svg>