<svg viewBox="0 0 1024 1024">
    <path
        d="M576.114697 227.558767v568.882466c0 31.421548-25.468144 56.889692-56.889692 56.889692s-56.889692-25.468144-56.889691-56.889692V568.889692H177.89408v227.551541c0 31.421548-25.468144 56.889692-56.889691 56.889692s-56.889692-25.468144-56.889692-56.889692V227.558767c0-31.421548 25.468144-56.889692 56.889692-56.889692s56.889692 25.468144 56.889691 56.889692v227.551541h284.441234V227.558767c0-31.421548 25.468144-56.889692 56.889691-56.889692s56.889692 25.468144 56.889692 56.889692z m345.203528 523.892358h-61.340295V432.279292a30.764073 30.764073 0 0 0-34.419925-34.448826h-35.684301a57.539942 57.539942 0 0 0-42.562507 16.892063l-77.611006 72.611303a30.923023 30.923023 0 0 0-1.249926 48.826586l16.277937 17.506188a30.648472 30.648472 0 0 0 48.190785 1.885726l5.642729-4.992479a69.056601 69.056601 0 0 0 13.74196-20.056614h1.286051s-0.643025 17.556763-0.643026 34.448825v186.499061H692.227757a30.771298 30.771298 0 0 0-34.419925 34.441601v25.005743a30.778523 30.778523 0 0 0 34.419925 34.4416h229.083243a30.771298 30.771298 0 0 0 34.419925-34.4416v-25.005743a30.778523 30.778523 0 0 0-34.4127-34.441601z"
        ></path>
</svg>