<svg viewBox="0 0 1025 1024"><path d="M630.447178 411.786477c-29.153025-29.153025-72.882562-29.153025-102.035587 0-29.153025 29.153025-29.153025 72.882562 0 102.035587l36.441281 36.441281c14.576512 14.576512 14.576512 43.729537 0 58.30605l-262.377224 262.377224c-14.576512 14.576512-36.441281 14.576512-58.30605 0l-87.459074-87.459075c-7.288256-21.864769-7.288256-43.729537 7.288256-58.306049l102.035587-102.035588C295.187392 586.704626 295.187392 542.975089 266.034367 513.822064c-29.153025-29.153025-72.882562-29.153025-102.035587 0L54.674936 615.857651c-72.882562 72.882562-72.882562 189.494662 0 262.377224l87.459075 87.459075c36.441281 36.441281 87.459075 58.30605 131.188612 58.30605 51.017794 0 94.747331-21.864769 131.188612-58.30605l262.377225-262.377224c72.882562-72.882562 72.882562-189.494662 0-262.377224l-36.441282-29.153025z m342.548043-269.665481L885.536146 54.661922c-72.882562-72.882562-196.782918-72.882562-262.377224 0L360.781698 317.039146c-72.882562 72.882562-72.882562 189.494662 0 262.377224l36.441281 36.441281c14.576512 14.576512 36.441281 21.864769 51.017794 21.864769s36.441281-7.288256 51.017793-21.864769c29.153025-29.153025 29.153025-72.882562 0-102.035587l-36.441281-36.441281c-14.576512-14.576512-14.576512-43.729537 0-58.30605l262.377224-262.377224c7.288256-7.288256 21.864769-7.288256 29.153025-7.288256 7.288256 0 14.576512 0 29.153025 14.576512l87.459075 87.459075c14.576512 14.576512 14.576512 43.729537 0 58.30605l-102.035587 102.035587c-29.153025 29.153025-29.153025 72.882562 0 102.035587 29.153025 29.153025 72.882562 29.153025 102.035587 0l102.035587-102.035587c65.594306-80.170819 65.594306-196.782918 0-269.665481z"></path></svg>