<svg viewBox="0 0 1024 1024"><path d="M250.335489 161.847132l47.185672 0 259.282255 0c67.99358 0 121.135918 17.084097 159.429059 51.236941 38.285978 34.160008 57.43306 81.427544 57.43306 141.794423 0 66.414619-19.146059 118.365828-57.43306 155.854651-38.293141 37.495986-91.435479 56.240909-159.429059 56.240909-89.292676-0.313132-159.832242 0-211.619722 0.953721l0 294.551526-47.185672 0L250.335489 862.479303 250.335489 161.847132zM345.18267 485.949694l188.265828 0c49.248657 0 85.315084-10.403954 108.192118-31.219026 22.878057-20.806885 34.316573-53.455469 34.316573-97.945753 0-39.395242-11.438517-68.230987-34.316573-86.507236-22.877033-18.268062-58.94346-27.406187-108.192118-27.406187L345.18267 242.871493 345.18267 485.949694z"></path></svg>