<svg viewBox="0 0 1238 1024"><path d="M821.902942 549.6832l-163.84-163.84a61.44 61.44 0 0 0-86.8352 0l-163.84 163.84a61.44 61.44 0 1 0 86.8352 86.8352L553.205342 577.536V962.56a61.44 61.44 0 1 0 122.88 0V577.536l58.9824 58.9824a61.44 61.44 0 0 0 86.8352 0 61.44 61.44 0 0 0 0-86.8352z" p-id="32924" fill="#2c2c2c"></path><path d="M942.325342 858.5216h-122.88a61.44 61.44 0 0 1 0-122.88h122.88a163.84 163.84 0 0 0 0-327.68h-36.2496a61.44 61.44 0 0 1-61.44-56.9344 245.76 245.76 0 0 0-490.2912 0 61.44 61.44 0 0 1-61.44 56.9344H286.965342a163.84 163.84 0 0 0 0 327.68h122.88a61.44 61.44 0 0 1 0 122.88h-122.88a286.72 286.72 0 0 1-47.3088-569.5488A368.64 368.64 0 0 1 958.914142 286.72 286.72 286.72 0 0 1 942.325342 860.16z"></path></svg>